<svg xmlns="http://www.w3.org/2000/svg" viewBox="0 0 855.15 492.19"><defs><style>.cls-1{fill:#183a65;}.cls-2{fill:#434343;}.cls-3{fill:#00a4b7;}</style></defs><title>Asset 1</title><g id="Layer_2" data-name="Layer 2"><g id="Layer_2-2" data-name="Layer 2"><polygon class="cls-1" points="89.37 42.93 163.52 203.43 291.38 68.76 207.42 138.81 163.2 42.93 89.37 42.93"/><polygon class="cls-1" points="136.32 362.47 204.48 291.86 253.5 397.67 327.33 397.67 244.12 218.04 136.32 362.47"/><path class="cls-1" d="M482.21,387.38c-11.42,5.07-33,9.3-57.51,9.3-66.81,0-109.52-40.59-109.52-105.71,0-60.47,41.44-109.94,118.4-109.94,16.91,0,35.52,3,49.05,8l-10.15,47.78c-7.61-3.39-19-6.35-35.94-6.35-33.83,0-55.82,24.11-55.39,57.93,0,38.06,25.37,57.94,56.66,57.94,15.22,0,27.06-2.54,36.78-6.35Z"/><path class="cls-1" d="M596.37,126.48v59.2h46.09V233H596.37v74.84c0,24.95,5.92,36.37,25.37,36.37a105.47,105.47,0,0,0,19-1.69l.42,48.62c-8.46,3.39-23.68,5.5-41.86,5.5-20.72,0-38.05-7.19-48.2-17.76-11.84-12.26-17.76-32.13-17.76-61.31V233H505.88V185.68h27.49V140.86Z"/><path class="cls-1" d="M797.22,392.45l-3.81-20.72h-1.26c-13.54,16.49-34.68,25.38-59.2,25.38-41.86,0-66.81-30.45-66.81-63.43,0-53.7,48.2-79.5,121.36-79.07v-3c0-11-5.93-26.64-37.64-26.64-21.14,0-43.55,7.19-57.08,15.64l-11.84-41.44c14.37-8,42.71-18.18,80.34-18.18,68.92,0,90.91,40.59,90.91,89.22v71.89c0,19.87.85,38.9,3,50.31Zm-7.61-97.67c-33.83-.43-60.05,7.61-60.05,32.56,0,16.49,11,24.52,25.38,24.52,16.06,0,29.17-10.57,33.4-23.68a45.85,45.85,0,0,0,1.27-11Z"/><path class="cls-2" d="M35.49,476.4l-6.86-11.88c-2.79-4.55-4.54-7.5-6.22-10.61h-.16c-1.51,3.11-3,6-5.82,10.69L10,476.4H2l16.43-27.19L2.64,422.66h8l7.1,12.59c2,3.51,3.51,6.22,4.94,9.09H23c1.52-3.18,2.87-5.66,4.87-9.09l7.33-12.59h8L26.8,448.81,43.54,476.4Z"/><path class="cls-2" d="M78,475a25.94,25.94,0,0,1-11.08,2.23c-11.65,0-19.22-7.9-19.22-19.7S55.82,437,68.42,437a23.56,23.56,0,0,1,9.73,2l-1.59,5.42a16.39,16.39,0,0,0-8.14-1.83c-8.85,0-13.63,6.54-13.63,14.59,0,8.93,5.74,14.44,13.39,14.44a19.85,19.85,0,0,0,8.61-1.92Z"/><path class="cls-2" d="M89.63,458.38c.16,9.49,6.22,13.4,13.24,13.4a25.28,25.28,0,0,0,10.68-2l1.2,5a31.38,31.38,0,0,1-12.84,2.39c-11.88,0-19-7.82-19-19.46s6.86-20.81,18.1-20.81c12.6,0,16,11.08,16,18.18a26.36,26.36,0,0,1-.24,3.27Zm20.57-5c.08-4.47-1.83-11.41-9.72-11.41-7.1,0-10.21,6.54-10.77,11.41Z"/><path class="cls-2" d="M125.67,450.41c0-5-.16-8.94-.32-12.6h6.3l.32,6.61h.16c2.87-4.7,7.41-7.49,13.71-7.49,9.33,0,16.35,7.89,16.35,19.62,0,13.87-8.45,20.73-17.54,20.73-5.11,0-9.57-2.23-11.88-6.06h-.16v21h-6.94Zm6.94,10.28a15.64,15.64,0,0,0,.32,2.87,10.82,10.82,0,0,0,10.52,8.22c7.42,0,11.72-6.06,11.72-14.92,0-7.73-4.06-14.35-11.48-14.35a11.21,11.21,0,0,0-10.61,8.69,11.88,11.88,0,0,0-.47,2.87Z"/><path class="cls-2" d="M179.49,426.72v11.09h10v5.34h-10V464c0,4.79,1.36,7.5,5.26,7.5a15.57,15.57,0,0,0,4.07-.48l.32,5.26a17.15,17.15,0,0,1-6.22,1c-3.27,0-5.9-1-7.58-2.95-2-2.08-2.71-5.5-2.71-10.05V443.15h-6v-5.34h6v-9.25Z"/><path class="cls-2" d="M205.24,427a4.35,4.35,0,0,1-8.69,0,4.28,4.28,0,0,1,4.39-4.38A4.16,4.16,0,0,1,205.24,427Zm-7.81,49.44V437.81h7V476.4Z"/><path class="cls-2" d="M251,456.79c0,14.27-9.88,20.49-19.21,20.49-10.45,0-18.5-7.66-18.5-19.86,0-12.92,8.45-20.49,19.13-20.49C243.52,436.93,251,445,251,456.79Zm-30.62.39c0,8.46,4.87,14.84,11.72,14.84,6.7,0,11.73-6.3,11.73-15,0-6.53-3.27-14.83-11.57-14.83S220.39,449.85,220.39,457.18Z"/><path class="cls-2" d="M259.86,448.25c0-4-.08-7.25-.32-10.44h6.22l.4,6.38h.16a14.19,14.19,0,0,1,12.76-7.26c5.34,0,13.63,3.19,13.63,16.43v23h-7V454.15c0-6.22-2.32-11.4-8.93-11.4a10.3,10.3,0,0,0-9.89,10.45v23.2h-7Z"/><path class="cls-2" d="M325.48,476.4l-.55-4.86h-.24a14.39,14.39,0,0,1-11.81,5.74c-7.81,0-11.8-5.5-11.8-11.09,0-9.33,8.3-14.43,23.21-14.35V451c0-3.19-.88-8.93-8.77-8.93a19.27,19.27,0,0,0-10,2.87l-1.6-4.62a23.91,23.91,0,0,1,12.68-3.43c11.8,0,14.68,8.05,14.68,15.79v14.43a55.26,55.26,0,0,0,.63,9.25Zm-1-19.69c-7.66-.16-16.35,1.19-16.35,8.69,0,4.54,3,6.7,6.62,6.7a9.61,9.61,0,0,0,9.33-6.46,7.35,7.35,0,0,0,.4-2.24Z"/><path class="cls-2" d="M342.55,419.78h7V476.4h-7Z"/><path class="cls-2" d="M385.44,428.56H369.1v-5.9h39.79v5.9H392.46V476.4h-7Z"/><path class="cls-2" d="M443.89,456.79c0,14.27-9.89,20.49-19.22,20.49-10.44,0-18.5-7.66-18.5-19.86,0-12.92,8.46-20.49,19.14-20.49C436.4,436.93,443.89,445,443.89,456.79Zm-30.62.39c0,8.46,4.86,14.84,11.72,14.84,6.7,0,11.72-6.3,11.72-15,0-6.53-3.27-14.83-11.56-14.83S413.27,449.85,413.27,457.18Z"/><path class="cls-2" d="M485,465.88c0,4,.08,7.49.32,10.52h-6.22l-.4-6.3h-.15a14.54,14.54,0,0,1-12.76,7.18c-6.06,0-13.32-3.35-13.32-16.91V437.81h7v21.37c0,7.33,2.23,12.28,8.61,12.28a9.88,9.88,0,0,0,9.89-10V437.81h7Z"/><path class="cls-2" d="M496.67,449.85c0-4.55-.08-8.46-.32-12h6.14l.24,7.57h.32c1.76-5.18,6-8.45,10.69-8.45a7.59,7.59,0,0,1,2,.24v6.62a10.48,10.48,0,0,0-2.39-.24c-5,0-8.45,3.75-9.41,9a19.69,19.69,0,0,0-.32,3.27V476.4h-6.94Z"/><path class="cls-2" d="M521.79,469.22A18.33,18.33,0,0,0,531,472c5.1,0,7.49-2.56,7.49-5.75,0-3.35-2-5.18-7.17-7.09-6.94-2.47-10.21-6.3-10.21-10.93,0-6.22,5-11.32,13.32-11.32a19.34,19.34,0,0,1,9.49,2.39l-1.76,5.1a15,15,0,0,0-7.89-2.23c-4.15,0-6.46,2.39-6.46,5.27,0,3.18,2.31,4.62,7.34,6.53,6.69,2.56,10.12,5.9,10.12,11.65,0,6.77-5.26,11.56-14.43,11.56A22.1,22.1,0,0,1,520,474.57Z"/><path class="cls-2" d="M580.15,459.5l-5.58,16.9H567.4l18.26-53.74H594l18.34,53.74H605l-5.74-16.9Zm17.63-5.43-5.27-15.47c-1.19-3.51-2-6.69-2.79-9.8h-.16c-.79,3.18-1.67,6.45-2.71,9.72l-5.26,15.55Z"/><path class="cls-2" d="M651.36,465.88c0,4,.08,7.49.32,10.52h-6.22l-.4-6.3h-.16a14.52,14.52,0,0,1-12.76,7.18c-6.06,0-13.31-3.35-13.31-16.91V437.81h7v21.37c0,7.33,2.24,12.28,8.62,12.28a10.16,10.16,0,0,0,9.25-6.38,10.47,10.47,0,0,0,.63-3.59V437.81h7Z"/><path class="cls-2" d="M662,469.22a18.33,18.33,0,0,0,9.25,2.8c5.11,0,7.5-2.56,7.5-5.75,0-3.35-2-5.18-7.18-7.09-6.94-2.47-10.21-6.3-10.21-10.93,0-6.22,5-11.32,13.32-11.32a19.31,19.31,0,0,1,9.49,2.39l-1.75,5.1a15.12,15.12,0,0,0-7.9-2.23c-4.15,0-6.46,2.39-6.46,5.27,0,3.18,2.31,4.62,7.34,6.53,6.7,2.56,10.13,5.9,10.13,11.65,0,6.77-5.27,11.56-14.44,11.56a22.06,22.06,0,0,1-10.84-2.63Z"/><path class="cls-2" d="M703,426.72v11.09h10.05v5.34H703V464c0,4.79,1.36,7.5,5.27,7.5a15.48,15.48,0,0,0,4.06-.48l.32,5.26a17.07,17.07,0,0,1-6.22,1c-3.26,0-5.9-1-7.57-2.95-2-2.08-2.71-5.5-2.71-10.05V443.15h-6v-5.34h6v-9.25Z"/><path class="cls-2" d="M721,449.85c0-4.55-.08-8.46-.32-12h6.14l.24,7.57h.31c1.76-5.18,6-8.45,10.69-8.45a7.48,7.48,0,0,1,2,.24v6.62a10.42,10.42,0,0,0-2.39-.24c-4.94,0-8.45,3.75-9.41,9a19.69,19.69,0,0,0-.32,3.27V476.4H721Z"/><path class="cls-2" d="M768,476.4l-.56-4.86h-.24a14.37,14.37,0,0,1-11.8,5.74c-7.81,0-11.8-5.5-11.8-11.09,0-9.33,8.29-14.43,23.2-14.35V451c0-3.19-.87-8.93-8.77-8.93A19.23,19.23,0,0,0,748,445l-1.6-4.62a23.91,23.91,0,0,1,12.68-3.43c11.8,0,14.67,8.05,14.67,15.79v14.43a54.15,54.15,0,0,0,.64,9.25Zm-1-19.69c-7.65-.16-16.34,1.19-16.34,8.69,0,4.54,3,6.7,6.62,6.7a9.61,9.61,0,0,0,9.33-6.46,7.65,7.65,0,0,0,.39-2.24Z"/><path class="cls-2" d="M785.07,419.78h7V476.4h-7Z"/><path class="cls-2" d="M811.7,427a4.35,4.35,0,0,1-8.69,0,4.28,4.28,0,0,1,4.39-4.38A4.16,4.16,0,0,1,811.7,427Zm-7.81,49.44V437.81h7V476.4Z"/><path class="cls-2" d="M843.92,476.4l-.56-4.86h-.24a14.37,14.37,0,0,1-11.8,5.74c-7.82,0-11.8-5.5-11.8-11.09,0-9.33,8.29-14.43,23.2-14.35V451c0-3.19-.88-8.93-8.77-8.93A19.27,19.27,0,0,0,823.9,445l-1.59-4.62A23.88,23.88,0,0,1,835,436.93c11.8,0,14.67,8.05,14.67,15.79v14.43a54.15,54.15,0,0,0,.64,9.25Zm-1-19.69c-7.65-.16-16.35,1.19-16.35,8.69,0,4.54,3,6.7,6.62,6.7a9.59,9.59,0,0,0,9.33-6.46,7.35,7.35,0,0,0,.4-2.24Z"/><path class="cls-3" d="M381,.2h0c-1.31-1.08-6.26,2.29-11.91,8.17-3,3.11-6.29,6.84-9.62,10.76v0a10.32,10.32,0,0,1-3.94,1.24l-41.74,2.3-1.93,3.22,36.47,6.82h0c-5.83,7.32-10.62,13.59-12.45,15.94L0,397.67H95.38L340.59,55.35c.38-.37.67-.66.82-.84.92-1.12,6.89-7.77,14-16.07h0L369,73l2.8-2.51L366.11,29a10.29,10.29,0,0,1,.47-4.1h0c3.21-4,6.23-8,8.72-11.49C380,6.78,382.35,1.28,381,.2Z"/></g></g></svg>